<svg width="200" height="60" viewBox="0 0 200 60" fill="none" xmlns="http://www.w3.org/2000/svg">
  <!-- Background Circle -->
  <circle cx="30" cy="30" r="28" fill="url(#gradient1)" stroke="url(#gradient2)" stroke-width="2"/>
  
  <!-- Letter N -->
  <path d="M15 15 L15 45 L20 45 L20 25 L35 45 L40 45 L40 15 L35 15 L35 35 L20 15 L15 15 Z" fill="white" stroke="white" stroke-width="0.5"/>
  
  <!-- Letter E -->
  <path d="M45 15 L45 45 L50 45 L50 20 L60 20 L60 15 L45 15 Z M50 25 L50 30 L65 30 L65 25 L50 25 Z M50 35 L50 40 L70 40 L70 35 L50 35 Z" fill="white" stroke="white" stroke-width="0.5"/>
  
  <!-- Company Name -->
  <text x="80" y="25" font-family="Arial, sans-serif" font-size="18" font-weight="bold" fill="url(#gradient3)">Namaste EXIM</text>
  <text x="80" y="40" font-family="Arial, sans-serif" font-size="12" font-weight="500" fill="#6B7280">Ventures</text>
  
  <!-- Decorative Elements -->
  <circle cx="170" cy="20" r="3" fill="url(#gradient4)"/>
  <circle cx="175" cy="25" r="2" fill="url(#gradient4)"/>
  <circle cx="180" cy="30" r="2.5" fill="url(#gradient4)"/>
  
  <!-- Gradients -->
  <defs>
    <linearGradient id="gradient1" x1="0%" y1="0%" x2="100%" y2="100%">
      <stop offset="0%" style="stop-color:#059669;stop-opacity:1" />
      <stop offset="100%" style="stop-color:#047857;stop-opacity:1" />
    </linearGradient>
    <linearGradient id="gradient2" x1="0%" y1="0%" x2="100%" y2="100%">
      <stop offset="0%" style="stop-color:#10B981;stop-opacity:1" />
      <stop offset="100%" style="stop-color:#059669;stop-opacity:1" />
    </linearGradient>
    <linearGradient id="gradient3" x1="0%" y1="0%" x2="100%" y2="0%">
      <stop offset="0%" style="stop-color:#1F2937;stop-opacity:1" />
      <stop offset="100%" style="stop-color:#374151;stop-opacity:1" />
    </linearGradient>
    <linearGradient id="gradient4" x1="0%" y1="0%" x2="100%" y2="100%">
      <stop offset="0%" style="stop-color:#F59E0B;stop-opacity:1" />
      <stop offset="100%" style="stop-color:#D97706;stop-opacity:1" />
    </linearGradient>
  </defs>
</svg>
